<mxfile host="app.diagrams.net" modified="2024-03-15T08:54:06.564Z" agent="Mozilla/5.0 (Windows NT 10.0; Win64; x64) AppleWebKit/537.36 (KHTML, like Gecko) Chrome/108.0.0.0 Safari/537.36 Edg/108.0.1462.54" version="24.0.5" etag="9EZmaU4CaYl6hEpf3RYJ" type="github">
  <diagram name="第 1 页" id="aPHUJ2WWop8-JKrYBG8F">
    <mxGraphModel>
      <root>
        <mxCell id="0" />
        <mxCell id="1" parent="0" />
      </root>
    </mxGraphModel>
  </diagram>
</mxfile>
